<svg xmlns="http://www.w3.org/2000/svg" xmlns:xlink="http://www.w3.org/1999/xlink" width="720" zoomAndPan="magnify" viewBox="0 0 540 112.499997" height="150" preserveAspectRatio="xMidYMid meet" version="1.0"><defs><g/></defs><g fill="#ffffff" fill-opacity="1"><g transform="translate(109.86017, 34.685421)"><g><path d="M 31.09375 -25.125 L 34.28125 -22.265625 L 33.078125 -21.578125 C 32.078125 -19.742188 30.859375 -17.972656 29.421875 -16.265625 C 27.992188 -14.554688 26.488281 -12.945312 24.90625 -11.4375 C 23.320312 -9.9375 21.757812 -8.585938 20.21875 -7.390625 C 21.289062 -6.535156 22.300781 -5.675781 23.25 -4.8125 C 24.207031 -3.945312 25.066406 -3.125 25.828125 -2.34375 L 23.359375 0.109375 C 21.484375 -1.960938 19.367188 -3.960938 17.015625 -5.890625 C 14.660156 -7.828125 12.039062 -9.625 9.15625 -11.28125 L 11.03125 -13.59375 C 12.101562 -13 13.210938 -12.328125 14.359375 -11.578125 C 15.503906 -10.835938 16.640625 -10.066406 17.765625 -9.265625 C 19.054688 -10.210938 20.425781 -11.335938 21.875 -12.640625 C 23.332031 -13.953125 24.722656 -15.378906 26.046875 -16.921875 C 27.378906 -18.460938 28.523438 -20.0625 29.484375 -21.71875 L 5.609375 -21.6875 L 3.265625 -21.53125 L 3.265625 -24.828125 L 5.609375 -24.6875 L 30.28125 -24.6875 Z M 31.09375 -25.125 "/></g></g></g><g fill="#ffffff" fill-opacity="1"><g transform="translate(145.090904, 34.685421)"><g><path d="M 4.609375 -15.609375 L 6.671875 -15.5 L 29.953125 -15.5 L 32.015625 -15.609375 L 32.015625 -12.265625 L 29.953125 -12.421875 L 6.671875 -12.421875 L 4.609375 -12.265625 Z M 4.609375 -15.609375 "/></g></g></g><g fill="#ffffff" fill-opacity="1"><g transform="translate(181.713383, 34.685421)"><g><path d="M 30.875 -21.359375 L 33.21875 -21.5 L 33.21875 -18.390625 L 30.875 -18.53125 L 24.0625 -18.53125 C 23.894531 -13.96875 22.785156 -10 20.734375 -6.625 C 18.679688 -3.257812 15.859375 -0.6875 12.265625 1.09375 L 9.890625 -1.171875 C 13.503906 -2.972656 16.195312 -5.269531 17.96875 -8.0625 C 19.738281 -10.863281 20.707031 -14.351562 20.875 -18.53125 L 11.140625 -18.53125 C 9.597656 -15.800781 7.519531 -13.335938 4.90625 -11.140625 L 2.640625 -13.375 C 7.546875 -17.28125 10.507812 -22.488281 11.53125 -29 L 14.875 -28.171875 L 14.4375 -26.921875 C 13.875 -24.816406 13.238281 -22.972656 12.53125 -21.390625 Z M 30.875 -21.359375 "/></g></g></g><g fill="#ffffff" fill-opacity="1"><g transform="translate(217.676613, 34.685421)"><g><path d="M 27.609375 -24.09375 L 8.828125 -24.09375 L 7.140625 -23.984375 L 7.140625 -27.0625 L 8.828125 -26.953125 L 27.609375 -26.953125 L 29.296875 -27.0625 L 29.296875 -23.984375 Z M 30.953125 -18.125 L 33.03125 -18.203125 L 33.03125 -15.15625 L 30.953125 -15.234375 L 21.390625 -15.234375 C 21.210938 -13.160156 20.765625 -11.128906 20.046875 -9.140625 C 19.328125 -7.148438 18.21875 -5.316406 16.71875 -3.640625 C 15.21875 -1.972656 13.195312 -0.5625 10.65625 0.59375 L 8.5625 -1.90625 C 10.8125 -2.851562 12.617188 -4 13.984375 -5.34375 C 15.359375 -6.6875 16.382812 -8.191406 17.0625 -9.859375 C 17.75 -11.535156 18.15625 -13.328125 18.28125 -15.234375 L 5.71875 -15.234375 L 3.59375 -15.15625 L 3.59375 -18.203125 L 5.71875 -18.125 Z M 30.953125 -18.125 "/></g></g></g><g fill="#ffffff" fill-opacity="1"><g transform="translate(250.087251, 34.685421)"><g><path d="M 25.5625 -24.765625 L 28.171875 -22.921875 L 27.328125 -22.046875 C 26.441406 -21.066406 25.476562 -20.085938 24.4375 -19.109375 C 23.40625 -18.140625 22.289062 -17.175781 21.09375 -16.21875 L 21.171875 -1.5 L 21.28125 1.3125 L 17.953125 1.3125 L 18.0625 -1.390625 L 18.3125 -14.140625 C 16.601562 -12.941406 14.789062 -11.804688 12.875 -10.734375 C 10.957031 -9.660156 8.972656 -8.671875 6.921875 -7.765625 L 5.015625 -10.25 C 7.867188 -11.394531 10.585938 -12.722656 13.171875 -14.234375 C 15.765625 -15.753906 18.125 -17.40625 20.25 -19.1875 C 22.375 -20.96875 24.144531 -22.828125 25.5625 -24.765625 Z M 25.5625 -24.765625 "/></g></g></g><g fill="#ffffff" fill-opacity="1"><g transform="translate(286.70973, 34.685421)"><g><path d="M 12.671875 -18.71875 C 11.128906 -19.9375 9.585938 -21.007812 8.046875 -21.9375 C 6.515625 -22.863281 5.101562 -23.632812 3.8125 -24.25 L 5.28125 -26.84375 C 6.769531 -26.164062 8.28125 -25.390625 9.8125 -24.515625 C 11.351562 -23.648438 12.941406 -22.632812 14.578125 -21.46875 Z M 30.984375 -22.34375 L 33.21875 -19.921875 C 31.457031 -16.847656 29.367188 -14.148438 26.953125 -11.828125 C 24.535156 -9.503906 21.875 -7.460938 18.96875 -5.703125 C 16.0625 -3.953125 13 -2.367188 9.78125 -0.953125 L 7.65625 -0.078125 L 5.3125 -3.046875 L 7.390625 -3.65625 C 11.304688 -5 14.78125 -6.640625 17.8125 -8.578125 C 20.851562 -10.523438 23.472656 -12.671875 25.671875 -15.015625 C 27.867188 -17.359375 29.640625 -19.800781 30.984375 -22.34375 Z M 30.984375 -22.34375 "/></g></g></g><g fill="#ffffff" fill-opacity="1"><g transform="translate(320.255737, 34.685421)"><g><path d="M 30.4375 -31.640625 L 30.4375 -26.046875 L 28.34375 -26.046875 L 28.34375 -31.640625 Z M 32.234375 -31.640625 L 34.3125 -31.640625 L 34.3125 -26.046875 L 32.234375 -26.046875 Z M 27.609375 -23.65625 L 28.28125 -24.25 L 31.5 -21.90625 L 30.6875 -21.359375 C 29.519531 -18.128906 28.019531 -15.132812 26.1875 -12.375 C 24.351562 -9.613281 22.097656 -7.097656 19.421875 -4.828125 C 16.753906 -2.554688 13.566406 -0.53125 9.859375 1.25 L 7.390625 -1.140625 C 12.421875 -3.285156 16.59375 -6.078125 19.90625 -9.515625 C 23.21875 -12.960938 25.601562 -16.75 27.0625 -20.875 L 14.09375 -20.875 C 11.851562 -17.96875 9.15625 -15.296875 6 -12.859375 L 3.625 -14.984375 C 5.675781 -16.472656 7.539062 -18.101562 9.21875 -19.875 C 10.90625 -21.644531 12.34375 -23.4375 13.53125 -25.25 C 14.71875 -27.070312 15.566406 -28.800781 16.078125 -30.4375 L 19.296875 -29.15625 L 18.5625 -27.9375 C 18.195312 -27.207031 17.8125 -26.488281 17.40625 -25.78125 C 17.007812 -25.070312 16.578125 -24.363281 16.109375 -23.65625 Z M 27.609375 -23.65625 "/></g></g></g><g fill="#ffffff" fill-opacity="1"><g transform="translate(356.878216, 34.685421)"><g><path d="M 25.703125 -7.390625 C 26.515625 -5.585938 27.734375 -4.125 29.359375 -3 C 30.984375 -1.875 32.988281 -1.019531 35.375 -0.4375 C 35.132812 0.0195312 34.859375 0.554688 34.546875 1.171875 C 34.242188 1.785156 34.035156 2.222656 33.921875 2.484375 C 31.472656 1.703125 29.40625 0.65625 27.71875 -0.65625 C 26.039062 -1.976562 24.75 -3.601562 23.84375 -5.53125 C 22.914062 -3.625 21.550781 -2.03125 19.75 -0.75 C 17.957031 0.53125 15.832031 1.597656 13.375 2.453125 C 13.21875 2.179688 12.96875 1.773438 12.625 1.234375 C 12.289062 0.703125 11.988281 0.226562 11.71875 -0.1875 C 14.351562 -0.9375 16.519531 -1.878906 18.21875 -3.015625 C 19.914062 -4.148438 21.117188 -5.609375 21.828125 -7.390625 L 15.3125 -7.390625 C 15.332031 -7.546875 15.347656 -7.707031 15.359375 -7.875 C 15.367188 -8.039062 15.375 -8.222656 15.375 -8.421875 L 15.375 -15.53125 C 15.375 -15.726562 15.367188 -15.910156 15.359375 -16.078125 C 15.347656 -16.242188 15.332031 -16.398438 15.3125 -16.546875 L 22.53125 -16.546875 L 22.53125 -19.375 L 19.40625 -19.375 C 19.144531 -19.375 18.882812 -19.375 18.625 -19.375 C 18.363281 -19.375 18.085938 -19.363281 17.796875 -19.34375 L 17.796875 -20.515625 C 17.265625 -20.046875 16.71875 -19.609375 16.15625 -19.203125 C 15.59375 -18.804688 15.039062 -18.445312 14.5 -18.125 C 14.332031 -18.445312 14.082031 -18.84375 13.75 -19.3125 C 13.425781 -19.789062 13.128906 -20.203125 12.859375 -20.546875 C 14.003906 -21.179688 15.203125 -22.03125 16.453125 -23.09375 C 17.710938 -24.15625 18.882812 -25.34375 19.96875 -26.65625 C 21.0625 -27.976562 21.898438 -29.3125 22.484375 -30.65625 L 25.53125 -30.171875 C 25.5 -30.128906 25.457031 -30.078125 25.40625 -30.015625 C 25.363281 -29.953125 25.332031 -29.894531 25.3125 -29.84375 C 25.988281 -28.675781 26.867188 -27.503906 27.953125 -26.328125 C 29.046875 -25.160156 30.226562 -24.085938 31.5 -23.109375 C 32.769531 -22.128906 33.988281 -21.347656 35.15625 -20.765625 C 34.957031 -20.453125 34.71875 -20.035156 34.4375 -19.515625 C 34.164062 -19.003906 33.929688 -18.578125 33.734375 -18.234375 C 33.171875 -18.523438 32.601562 -18.859375 32.03125 -19.234375 C 31.457031 -19.617188 30.890625 -20.03125 30.328125 -20.46875 L 30.328125 -19.34375 C 30.035156 -19.363281 29.765625 -19.375 29.515625 -19.375 C 29.273438 -19.375 28.992188 -19.375 28.671875 -19.375 L 25.3125 -19.375 L 25.3125 -16.546875 L 32.515625 -16.546875 C 32.492188 -16.378906 32.484375 -16.21875 32.484375 -16.0625 C 32.484375 -15.90625 32.484375 -15.726562 32.484375 -15.53125 L 32.484375 -8.421875 L 32.515625 -7.390625 Z M 9.375 -15.828125 C 9.394531 -14.359375 9.414062 -12.773438 9.4375 -11.078125 C 9.46875 -9.378906 9.488281 -7.726562 9.5 -6.125 C 9.507812 -4.53125 9.519531 -3.125 9.53125 -1.90625 C 9.550781 -0.6875 9.5625 0.191406 9.5625 0.734375 C 9.5625 1.003906 9.566406 1.285156 9.578125 1.578125 C 9.585938 1.867188 9.601562 2.148438 9.625 2.421875 L 6.78125 2.421875 C 6.800781 2.148438 6.816406 1.867188 6.828125 1.578125 C 6.835938 1.285156 6.84375 1.003906 6.84375 0.734375 C 6.84375 0.222656 6.847656 -0.628906 6.859375 -1.828125 C 6.878906 -3.023438 6.894531 -4.398438 6.90625 -5.953125 C 6.914062 -7.503906 6.929688 -9.109375 6.953125 -10.765625 C 6.984375 -12.429688 7.007812 -13.992188 7.03125 -15.453125 C 6.488281 -13.304688 5.882812 -11.316406 5.21875 -9.484375 C 4.550781 -7.648438 3.835938 -6.148438 3.078125 -4.984375 C 2.984375 -5.347656 2.785156 -5.835938 2.484375 -6.453125 C 2.191406 -7.078125 1.925781 -7.613281 1.6875 -8.0625 C 2.25 -8.84375 2.835938 -9.882812 3.453125 -11.1875 C 4.078125 -12.488281 4.675781 -13.925781 5.25 -15.5 C 5.820312 -17.082031 6.269531 -18.65625 6.59375 -20.21875 L 3.875 -20.21875 C 3.613281 -20.21875 3.359375 -20.21875 3.109375 -20.21875 C 2.867188 -20.21875 2.613281 -20.207031 2.34375 -20.1875 L 2.34375 -22.890625 C 2.613281 -22.867188 2.867188 -22.859375 3.109375 -22.859375 C 3.359375 -22.859375 3.613281 -22.859375 3.875 -22.859375 L 6.84375 -22.859375 L 6.84375 -29.40625 C 6.84375 -29.476562 6.835938 -29.625 6.828125 -29.84375 C 6.816406 -30.0625 6.800781 -30.25 6.78125 -30.40625 C 7 -30.40625 7.289062 -30.394531 7.65625 -30.375 C 8.019531 -30.363281 8.390625 -30.351562 8.765625 -30.34375 C 9.148438 -30.332031 9.4375 -30.3125 9.625 -30.28125 C 9.582031 -29.945312 9.5625 -29.644531 9.5625 -29.375 L 9.5625 -22.859375 L 11.28125 -22.859375 C 11.550781 -22.859375 11.804688 -22.859375 12.046875 -22.859375 C 12.296875 -22.859375 12.550781 -22.867188 12.8125 -22.890625 L 12.8125 -20.1875 C 12.550781 -20.207031 12.296875 -20.21875 12.046875 -20.21875 C 11.804688 -20.21875 11.550781 -20.21875 11.28125 -20.21875 L 9.703125 -20.21875 C 10.117188 -18.65625 10.675781 -17.175781 11.375 -15.78125 C 12.070312 -14.394531 12.738281 -13.3125 13.375 -12.53125 C 13.144531 -12.132812 12.914062 -11.664062 12.6875 -11.125 C 12.457031 -10.59375 12.28125 -10.15625 12.15625 -9.8125 C 11.695312 -10.46875 11.222656 -11.320312 10.734375 -12.375 C 10.242188 -13.425781 9.789062 -14.578125 9.375 -15.828125 Z M 19.125 -21.6875 L 28.859375 -21.6875 C 27.929688 -22.539062 27.046875 -23.445312 26.203125 -24.40625 C 25.359375 -25.375 24.597656 -26.382812 23.921875 -27.4375 C 23.234375 -26.382812 22.476562 -25.375 21.65625 -24.40625 C 20.84375 -23.445312 20 -22.539062 19.125 -21.6875 Z M 18.0625 -9.8125 L 22.484375 -9.8125 C 22.535156 -10.15625 22.570312 -10.503906 22.59375 -10.859375 C 22.625 -11.210938 22.640625 -11.582031 22.640625 -11.96875 L 22.640625 -14.140625 L 18.0625 -14.140625 Z M 29.8125 -9.8125 L 29.8125 -14.140625 L 25.203125 -14.140625 L 25.203125 -11.796875 C 25.203125 -11.109375 25.164062 -10.445312 25.09375 -9.8125 Z M 29.8125 -9.8125 "/></g></g></g><g fill="#ffffff" fill-opacity="1"><g transform="translate(393.500694, 34.685421)"><g><path d="M 3.765625 -18.859375 C 3.796875 -18.984375 3.816406 -19.128906 3.828125 -19.296875 C 3.835938 -19.472656 3.84375 -19.644531 3.84375 -19.8125 L 3.84375 -25.5625 C 3.84375 -25.757812 3.835938 -25.9375 3.828125 -26.09375 C 3.816406 -26.25 3.796875 -26.390625 3.765625 -26.515625 L 16.703125 -26.515625 L 16.703125 -29.625 C 16.703125 -29.695312 16.695312 -29.835938 16.6875 -30.046875 C 16.675781 -30.253906 16.65625 -30.421875 16.625 -30.546875 C 16.875 -30.546875 17.203125 -30.539062 17.609375 -30.53125 C 18.023438 -30.519531 18.445312 -30.503906 18.875 -30.484375 C 19.300781 -30.472656 19.625 -30.457031 19.84375 -30.4375 C 19.800781 -30.144531 19.78125 -29.863281 19.78125 -29.59375 L 19.78125 -26.515625 L 32.96875 -26.515625 C 32.9375 -26.367188 32.921875 -26.222656 32.921875 -26.078125 C 32.921875 -25.929688 32.921875 -25.757812 32.921875 -25.5625 L 32.921875 -19.8125 L 32.96875 -18.859375 L 30.03125 -18.859375 L 30.03125 -23.953125 L 6.734375 -23.953125 L 6.734375 -18.859375 Z M 24.203125 -1.171875 C 26.453125 -1.171875 28.398438 -1.210938 30.046875 -1.296875 C 31.691406 -1.378906 33.257812 -1.519531 34.75 -1.71875 C 34.65625 -1.28125 34.535156 -0.757812 34.390625 -0.15625 C 34.242188 0.4375 34.125 0.890625 34.03125 1.203125 C 32.6875 1.378906 31.207031 1.492188 29.59375 1.546875 C 27.976562 1.609375 26.125 1.640625 24.03125 1.640625 C 22 1.640625 20.046875 1.414062 18.171875 0.96875 C 16.304688 0.519531 14.632812 -0.21875 13.15625 -1.25 C 11.6875 -2.289062 10.5 -3.691406 9.59375 -5.453125 C 8.988281 -3.847656 8.269531 -2.363281 7.4375 -1 C 6.601562 0.351562 5.6875 1.515625 4.6875 2.484375 C 4.414062 2.265625 4.003906 1.976562 3.453125 1.625 C 2.910156 1.269531 2.429688 0.972656 2.015625 0.734375 C 3.703125 -0.773438 5.140625 -2.78125 6.328125 -5.28125 C 7.523438 -7.789062 8.359375 -10.5625 8.828125 -13.59375 C 9.285156 -13.488281 9.765625 -13.378906 10.265625 -13.265625 C 10.773438 -13.160156 11.269531 -13.046875 11.75 -12.921875 C 11.726562 -12.878906 11.695312 -12.820312 11.65625 -12.75 C 11.625 -12.675781 11.597656 -12.613281 11.578125 -12.5625 C 11.472656 -11.925781 11.347656 -11.300781 11.203125 -10.6875 C 11.054688 -10.082031 10.898438 -9.472656 10.734375 -8.859375 C 11.191406 -7.253906 11.957031 -5.925781 13.03125 -4.875 C 14.113281 -3.820312 15.375 -3.003906 16.8125 -2.421875 L 16.8125 -16.734375 L 9.625 -16.734375 C 9.164062 -16.734375 8.738281 -16.734375 8.34375 -16.734375 C 7.957031 -16.734375 7.59375 -16.710938 7.25 -16.671875 L 7.25 -19.484375 C 7.59375 -19.460938 7.957031 -19.441406 8.34375 -19.421875 C 8.738281 -19.410156 9.164062 -19.40625 9.625 -19.40625 L 27.46875 -19.40625 C 27.957031 -19.40625 28.390625 -19.410156 28.765625 -19.421875 C 29.148438 -19.441406 29.523438 -19.460938 29.890625 -19.484375 L 29.890625 -16.671875 C 29.523438 -16.710938 29.148438 -16.734375 28.765625 -16.734375 C 28.390625 -16.734375 27.957031 -16.734375 27.46875 -16.734375 L 19.734375 -16.734375 L 19.734375 -11.03125 L 27.796875 -11.03125 C 28.085938 -11.03125 28.351562 -11.03125 28.59375 -11.03125 C 28.84375 -11.03125 29.101562 -11.039062 29.375 -11.0625 L 29.375 -8.421875 C 29.101562 -8.441406 28.84375 -8.453125 28.59375 -8.453125 C 28.351562 -8.453125 28.085938 -8.453125 27.796875 -8.453125 L 19.734375 -8.453125 L 19.734375 -1.578125 C 20.441406 -1.429688 21.175781 -1.328125 21.9375 -1.265625 C 22.695312 -1.203125 23.453125 -1.171875 24.203125 -1.171875 Z M 24.203125 -1.171875 "/></g></g></g><g fill="#ffffff" fill-opacity="1"><g transform="translate(7.144815, 103.380107)"><g><path d="M 32.984375 -25.5625 C 33.023438 -22.632812 33.054688 -19.664062 33.078125 -16.65625 C 33.109375 -13.65625 33.144531 -10.828125 33.1875 -8.171875 C 33.238281 -5.515625 33.285156 -3.15625 33.328125 -1.09375 C 33.367188 0.507812 33 1.753906 32.21875 2.640625 C 31.445312 3.535156 30.582031 4.03125 29.625 4.125 C 28.65625 4.21875 27.769531 3.929688 26.96875 3.265625 C 26.164062 2.597656 25.789062 1.488281 25.84375 -0.0625 C 25.925781 -2.3125 25.988281 -4.898438 26.03125 -7.828125 C 26.082031 -10.765625 26.128906 -13.859375 26.171875 -17.109375 C 26.222656 -20.359375 26.25 -23.578125 26.25 -26.765625 C 26.25 -29.953125 26.238281 -32.941406 26.21875 -35.734375 C 26.195312 -38.523438 26.160156 -40.90625 26.109375 -42.875 C 26.066406 -43.976562 26 -45.046875 25.90625 -46.078125 C 25.8125 -47.109375 25.675781 -47.96875 25.5 -48.65625 C 25.175781 -49.894531 25.332031 -50.867188 25.96875 -51.578125 C 26.613281 -52.285156 27.441406 -52.695312 28.453125 -52.8125 C 29.460938 -52.925781 30.398438 -52.738281 31.265625 -52.25 C 32.140625 -51.769531 32.644531 -50.9375 32.78125 -49.75 C 32.875 -49.0625 32.941406 -48.566406 32.984375 -48.265625 C 33.023438 -47.972656 33.054688 -47.53125 33.078125 -46.9375 C 33.109375 -46.34375 33.097656 -45.242188 33.046875 -43.640625 C 33.003906 -42.265625 32.984375 -40.601562 32.984375 -38.65625 C 32.984375 -36.707031 32.984375 -34.585938 32.984375 -32.296875 C 33.347656 -32.390625 33.738281 -32.390625 34.15625 -32.296875 C 35.019531 -32.203125 36.160156 -32.003906 37.578125 -31.703125 C 39.003906 -31.410156 40.53125 -31.007812 42.15625 -30.5 C 43.78125 -30 45.328125 -29.382812 46.796875 -28.65625 C 48.265625 -27.925781 49.457031 -27.054688 50.375 -26.046875 C 51.195312 -25.171875 51.5625 -24.238281 51.46875 -23.25 C 51.375 -22.269531 51.003906 -21.398438 50.359375 -20.640625 C 49.722656 -19.890625 48.945312 -19.457031 48.03125 -19.34375 C 47.113281 -19.226562 46.195312 -19.582031 45.28125 -20.40625 C 44.414062 -21.28125 43.238281 -22.070312 41.75 -22.78125 C 40.257812 -23.488281 38.722656 -24.09375 37.140625 -24.59375 C 35.554688 -25.101562 34.171875 -25.425781 32.984375 -25.5625 Z M 32.984375 -25.5625 "/></g></g></g><g fill="#ffffff" fill-opacity="1"><g transform="translate(75.862823, 103.380107)"><g><path d="M 44.328125 -43.84375 C 43.410156 -43.707031 42.207031 -43.566406 40.71875 -43.421875 C 39.226562 -43.285156 37.679688 -43.148438 36.078125 -43.015625 C 34.472656 -42.878906 33.003906 -42.753906 31.671875 -42.640625 C 30.347656 -42.523438 29.363281 -42.445312 28.71875 -42.40625 C 27.988281 -42.351562 27.394531 -42.316406 26.9375 -42.296875 C 26.476562 -42.273438 25.984375 -42.265625 25.453125 -42.265625 C 24.929688 -42.265625 24.191406 -42.238281 23.234375 -42.1875 C 22.128906 -42.1875 21.265625 -42.492188 20.640625 -43.109375 C 20.023438 -43.734375 19.679688 -44.46875 19.609375 -45.3125 C 19.546875 -46.164062 19.789062 -46.921875 20.34375 -47.578125 C 20.894531 -48.242188 21.785156 -48.601562 23.015625 -48.65625 C 23.890625 -48.695312 24.539062 -48.707031 24.96875 -48.6875 C 25.40625 -48.664062 25.816406 -48.65625 26.203125 -48.65625 C 26.597656 -48.65625 27.140625 -48.675781 27.828125 -48.71875 C 29.023438 -48.8125 30.609375 -48.945312 32.578125 -49.125 C 34.546875 -49.3125 36.582031 -49.519531 38.6875 -49.75 C 40.789062 -49.976562 42.625 -50.207031 44.1875 -50.4375 C 45.332031 -50.625 46.316406 -50.441406 47.140625 -49.890625 C 47.960938 -49.335938 48.488281 -48.625 48.71875 -47.75 C 48.945312 -46.882812 48.726562 -46.070312 48.0625 -45.3125 C 47.40625 -44.5625 46.160156 -44.070312 44.328125 -43.84375 Z M 54.625 -29.96875 C 52.75 -26.382812 50.8125 -23.015625 48.8125 -19.859375 C 46.820312 -16.703125 44.585938 -13.757812 42.109375 -11.03125 C 39.640625 -8.300781 36.769531 -5.800781 33.5 -3.53125 C 30.226562 -1.269531 26.347656 0.753906 21.859375 2.546875 C 20.566406 3.046875 19.414062 3.097656 18.40625 2.703125 C 17.40625 2.316406 16.675781 1.6875 16.21875 0.8125 C 15.757812 -0.0507812 15.710938 -0.941406 16.078125 -1.859375 C 16.441406 -2.773438 17.359375 -3.503906 18.828125 -4.046875 C 23.316406 -5.703125 27.347656 -7.890625 30.921875 -10.609375 C 34.492188 -13.335938 37.53125 -16.328125 40.03125 -19.578125 C 42.53125 -22.835938 44.375 -26.046875 45.5625 -29.203125 C 45.832031 -29.984375 45.875 -30.507812 45.6875 -30.78125 C 45.507812 -31.0625 45.078125 -31.175781 44.390625 -31.125 C 43.066406 -31.03125 41.519531 -30.890625 39.75 -30.703125 C 37.988281 -30.523438 36.191406 -30.3125 34.359375 -30.0625 C 32.523438 -29.8125 30.835938 -29.59375 29.296875 -29.40625 C 27.765625 -29.226562 26.585938 -29.09375 25.765625 -29 C 24.390625 -28.863281 23.359375 -28.738281 22.671875 -28.625 C 21.984375 -28.507812 21.296875 -28.425781 20.609375 -28.375 C 19.921875 -28.332031 18.914062 -28.289062 17.59375 -28.25 C 16.445312 -28.25 15.53125 -28.59375 14.84375 -29.28125 C 14.15625 -29.96875 13.753906 -30.765625 13.640625 -31.671875 C 13.523438 -32.585938 13.765625 -33.398438 14.359375 -34.109375 C 14.953125 -34.828125 15.984375 -35.1875 17.453125 -35.1875 C 18.640625 -35.1875 19.585938 -35.195312 20.296875 -35.21875 C 21.015625 -35.238281 21.71875 -35.269531 22.40625 -35.3125 C 23.09375 -35.363281 23.960938 -35.410156 25.015625 -35.453125 C 25.835938 -35.503906 27.128906 -35.617188 28.890625 -35.796875 C 30.660156 -35.984375 32.664062 -36.191406 34.90625 -36.421875 C 37.15625 -36.648438 39.4375 -36.878906 41.75 -37.109375 C 44.0625 -37.335938 46.203125 -37.539062 48.171875 -37.71875 C 49.867188 -37.90625 51.347656 -37.65625 52.609375 -36.96875 C 53.867188 -36.28125 54.726562 -35.328125 55.1875 -34.109375 C 55.644531 -32.898438 55.457031 -31.519531 54.625 -29.96875 Z M 54.625 -29.96875 "/></g></g></g><g fill="#ffffff" fill-opacity="1"><g transform="translate(141.1446, 103.380107)"><g><path d="M 34.5625 -25.5625 C 31.90625 -22.769531 29.097656 -20.171875 26.140625 -17.765625 C 23.191406 -15.359375 19.90625 -13.054688 16.28125 -10.859375 C 14.675781 -9.898438 13.289062 -9.519531 12.125 -9.71875 C 10.957031 -9.925781 10.085938 -10.441406 9.515625 -11.265625 C 8.941406 -12.085938 8.757812 -12.992188 8.96875 -13.984375 C 9.175781 -14.972656 9.875 -15.765625 11.0625 -16.359375 C 14.769531 -18.191406 18.398438 -20.515625 21.953125 -23.328125 C 25.503906 -26.148438 28.828125 -29.265625 31.921875 -32.671875 C 35.015625 -36.085938 37.679688 -39.5625 39.921875 -43.09375 C 40.148438 -43.457031 40.425781 -43.984375 40.75 -44.671875 C 41.070312 -45.359375 41.390625 -46.066406 41.703125 -46.796875 C 42.023438 -47.523438 42.257812 -48.097656 42.40625 -48.515625 C 42.769531 -49.523438 43.441406 -50.175781 44.421875 -50.46875 C 45.410156 -50.769531 46.394531 -50.75 47.375 -50.40625 C 48.363281 -50.0625 49.109375 -49.460938 49.609375 -48.609375 C 50.117188 -47.765625 50.078125 -46.703125 49.484375 -45.421875 C 49.023438 -44.503906 48.609375 -43.644531 48.234375 -42.84375 C 47.867188 -42.039062 47.160156 -40.90625 46.109375 -39.4375 C 45.148438 -38.15625 44.195312 -36.921875 43.25 -35.734375 C 42.3125 -34.546875 41.382812 -33.378906 40.46875 -32.234375 C 40.75 -31.953125 40.957031 -31.609375 41.09375 -31.203125 C 41.28125 -30.691406 41.40625 -30.21875 41.46875 -29.78125 C 41.539062 -29.351562 41.578125 -28.738281 41.578125 -27.9375 C 41.578125 -27.132812 41.53125 -25.953125 41.4375 -24.390625 C 41.34375 -22.609375 41.285156 -20.375 41.265625 -17.6875 C 41.242188 -15.007812 41.253906 -12.203125 41.296875 -9.265625 C 41.347656 -6.335938 41.394531 -3.640625 41.4375 -1.171875 C 41.476562 0.429688 41.109375 1.578125 40.328125 2.265625 C 39.554688 2.953125 38.710938 3.34375 37.796875 3.4375 C 36.921875 3.53125 36.082031 3.242188 35.28125 2.578125 C 34.476562 1.910156 34.101562 0.820312 34.15625 -0.6875 C 34.195312 -3.15625 34.273438 -5.738281 34.390625 -8.4375 C 34.503906 -11.144531 34.609375 -13.816406 34.703125 -16.453125 C 34.796875 -19.085938 34.796875 -21.484375 34.703125 -23.640625 C 34.703125 -24.003906 34.691406 -24.332031 34.671875 -24.625 C 34.648438 -24.925781 34.613281 -25.238281 34.5625 -25.5625 Z M 34.5625 -25.5625 "/></g></g></g><g fill="#ffffff" fill-opacity="1"><g transform="translate(209.862608, 103.380107)"><g><path d="M 35.109375 -23.4375 C 33.828125 -18.125 31.734375 -13.359375 28.828125 -9.140625 C 25.921875 -4.921875 21.738281 -1.164062 16.28125 2.125 C 14.769531 3 13.394531 3.320312 12.15625 3.09375 C 10.925781 2.863281 10 2.300781 9.375 1.40625 C 8.757812 0.507812 8.597656 -0.472656 8.890625 -1.546875 C 9.191406 -2.617188 10.125 -3.546875 11.6875 -4.328125 C 16.769531 -6.890625 20.582031 -10.035156 23.125 -13.765625 C 25.664062 -17.503906 27.300781 -21.503906 28.03125 -25.765625 C 28.40625 -28.054688 28.40625 -30.140625 28.03125 -32.015625 C 27.851562 -33.078125 28.09375 -33.953125 28.75 -34.640625 C 29.414062 -35.328125 30.265625 -35.738281 31.296875 -35.875 C 32.328125 -36.007812 33.300781 -35.835938 34.21875 -35.359375 C 35.132812 -34.878906 35.707031 -33.992188 35.9375 -32.703125 C 36.03125 -32.390625 36.078125 -31.976562 36.078125 -31.46875 C 36.078125 -30.96875 36.078125 -30.441406 36.078125 -29.890625 C 37.453125 -30.578125 38.882812 -31.398438 40.375 -32.359375 C 41.863281 -33.328125 43.269531 -34.394531 44.59375 -35.5625 C 45.925781 -36.726562 47.003906 -37.882812 47.828125 -39.03125 C 48.421875 -39.8125 48.691406 -40.40625 48.640625 -40.8125 C 48.597656 -41.226562 47.914062 -41.390625 46.59375 -41.296875 C 44.4375 -41.203125 42.191406 -41.050781 39.859375 -40.84375 C 37.523438 -40.644531 35.28125 -40.429688 33.125 -40.203125 C 30.96875 -39.972656 29.0625 -39.742188 27.40625 -39.515625 C 25.757812 -39.285156 24.550781 -39.125 23.78125 -39.03125 C 22.539062 -38.894531 21.453125 -38.742188 20.515625 -38.578125 C 19.578125 -38.421875 18.632812 -38.296875 17.6875 -38.203125 C 16.75 -38.109375 15.640625 -38.085938 14.359375 -38.140625 C 13.265625 -38.179688 12.394531 -38.566406 11.75 -39.296875 C 11.101562 -40.035156 10.769531 -40.875 10.75 -41.8125 C 10.726562 -42.75 11.050781 -43.570312 11.71875 -44.28125 C 12.382812 -45 13.425781 -45.332031 14.84375 -45.28125 C 16.3125 -45.238281 17.832031 -45.296875 19.40625 -45.453125 C 20.988281 -45.617188 22.492188 -45.742188 23.921875 -45.828125 C 24.691406 -45.878906 25.925781 -45.984375 27.625 -46.140625 C 29.320312 -46.304688 31.335938 -46.476562 33.671875 -46.65625 C 36.003906 -46.84375 38.535156 -47.035156 41.265625 -47.234375 C 43.992188 -47.441406 46.734375 -47.617188 49.484375 -47.765625 C 52.046875 -47.898438 54.035156 -47.4375 55.453125 -46.375 C 56.878906 -45.320312 57.613281 -43.925781 57.65625 -42.1875 C 57.695312 -40.445312 56.894531 -38.617188 55.25 -36.703125 C 53.050781 -34.128906 50.507812 -31.617188 47.625 -29.171875 C 44.738281 -26.722656 41.53125 -24.832031 38 -23.5 C 36.945312 -23.09375 35.984375 -23.070312 35.109375 -23.4375 Z M 35.109375 -23.4375 "/></g></g></g><g fill="#ffffff" fill-opacity="1"><g transform="translate(266.210208, 103.380107)"><g><path d="M 64.9375 -28.375 C 63.613281 -26.226562 62 -24.019531 60.09375 -21.75 C 58.195312 -19.476562 56.132812 -17.300781 53.90625 -15.21875 C 51.6875 -13.132812 49.40625 -11.28125 47.0625 -9.65625 C 44.726562 -8.03125 42.488281 -6.78125 40.34375 -5.90625 C 38.78125 -5.3125 37.503906 -5.195312 36.515625 -5.5625 C 35.535156 -5.925781 34.847656 -6.585938 34.453125 -7.546875 C 34.066406 -8.515625 33.988281 -9.550781 34.21875 -10.65625 C 34.445312 -11.84375 34.675781 -13.351562 34.90625 -15.1875 C 35.132812 -17.019531 35.328125 -18.96875 35.484375 -21.03125 C 35.648438 -23.09375 35.765625 -25.082031 35.828125 -27 C 35.898438 -28.925781 35.890625 -30.578125 35.796875 -31.953125 C 35.753906 -32.828125 35.695312 -33.609375 35.625 -34.296875 C 35.5625 -34.984375 35.4375 -35.710938 35.25 -36.484375 C 35.019531 -37.628906 35.191406 -38.566406 35.765625 -39.296875 C 36.335938 -40.035156 37.09375 -40.519531 38.03125 -40.75 C 38.96875 -40.976562 39.875 -40.910156 40.75 -40.546875 C 41.625 -40.179688 42.242188 -39.46875 42.609375 -38.40625 C 42.972656 -37.351562 43.109375 -36.359375 43.015625 -35.421875 C 42.921875 -34.484375 42.832031 -33.097656 42.75 -31.265625 C 42.75 -30.578125 42.691406 -29.546875 42.578125 -28.171875 C 42.460938 -26.796875 42.347656 -25.316406 42.234375 -23.734375 C 42.117188 -22.160156 42.015625 -20.71875 41.921875 -19.40625 C 41.828125 -18.101562 41.78125 -17.15625 41.78125 -16.5625 C 41.78125 -15.78125 41.867188 -15.332031 42.046875 -15.21875 C 42.234375 -15.101562 42.71875 -15.273438 43.5 -15.734375 C 45.28125 -16.742188 47.117188 -18.164062 49.015625 -20 C 50.921875 -21.832031 52.734375 -23.847656 54.453125 -26.046875 C 56.171875 -28.242188 57.648438 -30.421875 58.890625 -32.578125 C 59.578125 -33.722656 60.390625 -34.363281 61.328125 -34.5 C 62.265625 -34.632812 63.132812 -34.414062 63.9375 -33.84375 C 64.738281 -33.269531 65.273438 -32.488281 65.546875 -31.5 C 65.828125 -30.519531 65.625 -29.476562 64.9375 -28.375 Z M 11.34375 -2 C 10.101562 -1.21875 8.957031 -0.941406 7.90625 -1.171875 C 6.851562 -1.398438 6.039062 -1.898438 5.46875 -2.671875 C 4.894531 -3.453125 4.695312 -4.320312 4.875 -5.28125 C 5.0625 -6.25 5.773438 -7.078125 7.015625 -7.765625 C 11.546875 -10.285156 15.070312 -13.34375 17.59375 -16.9375 C 20.113281 -20.53125 21.804688 -24.140625 22.671875 -27.765625 C 22.898438 -28.722656 23.035156 -29.726562 23.078125 -30.78125 C 23.128906 -31.832031 23.109375 -32.863281 23.015625 -33.875 C 22.878906 -35.113281 23.164062 -36.078125 23.875 -36.765625 C 24.582031 -37.453125 25.441406 -37.828125 26.453125 -37.890625 C 27.460938 -37.960938 28.367188 -37.703125 29.171875 -37.109375 C 29.972656 -36.515625 30.421875 -35.53125 30.515625 -34.15625 C 30.554688 -33.46875 30.578125 -32.820312 30.578125 -32.21875 C 30.578125 -31.625 30.507812 -30.925781 30.375 -30.125 C 30.238281 -29.332031 29.988281 -28.269531 29.625 -26.9375 C 28.84375 -24.050781 27.707031 -21.117188 26.21875 -18.140625 C 24.726562 -15.160156 22.769531 -12.296875 20.34375 -9.546875 C 17.914062 -6.796875 14.914062 -4.28125 11.34375 -2 Z M 11.34375 -2 "/></g></g></g><g fill="#ffffff" fill-opacity="1"><g transform="translate(334.928204, 103.380107)"><g><path d="M 32.921875 -36.625 C 31.546875 -34.75 30.03125 -32.78125 28.375 -30.71875 C 26.726562 -28.65625 24.960938 -26.679688 23.078125 -24.796875 C 21.203125 -22.921875 19.257812 -21.296875 17.25 -19.921875 C 16.0625 -19.148438 14.960938 -18.878906 13.953125 -19.109375 C 12.941406 -19.335938 12.171875 -19.851562 11.640625 -20.65625 C 11.117188 -21.457031 10.957031 -22.347656 11.15625 -23.328125 C 11.363281 -24.316406 12.066406 -25.175781 13.265625 -25.90625 C 15.503906 -27.28125 17.539062 -28.882812 19.375 -30.71875 C 21.207031 -32.550781 22.867188 -34.453125 24.359375 -36.421875 C 25.847656 -38.390625 27.117188 -40.195312 28.171875 -41.84375 C 28.765625 -42.757812 29.300781 -43.707031 29.78125 -44.6875 C 30.269531 -45.675781 30.628906 -46.609375 30.859375 -47.484375 C 31.171875 -48.628906 31.75 -49.429688 32.59375 -49.890625 C 33.445312 -50.347656 34.34375 -50.492188 35.28125 -50.328125 C 36.226562 -50.171875 37 -49.75 37.59375 -49.0625 C 38.1875 -48.375 38.390625 -47.457031 38.203125 -46.3125 C 38.160156 -45.851562 38.035156 -45.359375 37.828125 -44.828125 C 37.617188 -44.304688 37.398438 -43.796875 37.171875 -43.296875 C 38.828125 -43.566406 40.507812 -43.875 42.21875 -44.21875 C 43.9375 -44.5625 45.578125 -44.78125 47.140625 -44.875 C 48.742188 -44.96875 50.195312 -44.691406 51.5 -44.046875 C 52.8125 -43.410156 53.707031 -42.503906 54.1875 -41.328125 C 54.664062 -40.160156 54.46875 -38.820312 53.59375 -37.3125 C 50.851562 -32.59375 48.09375 -28.21875 45.3125 -24.1875 C 42.539062 -20.15625 39.617188 -16.488281 36.546875 -13.1875 C 33.484375 -9.894531 30.109375 -6.960938 26.421875 -4.390625 C 22.734375 -1.828125 18.578125 0.34375 13.953125 2.125 C 12.484375 2.675781 11.242188 2.742188 10.234375 2.328125 C 9.234375 1.921875 8.546875 1.269531 8.171875 0.375 C 7.804688 -0.519531 7.851562 -1.445312 8.3125 -2.40625 C 8.769531 -3.363281 9.734375 -4.070312 11.203125 -4.53125 C 16.054688 -6.1875 20.53125 -8.582031 24.625 -11.71875 C 28.726562 -14.851562 32.472656 -18.5625 35.859375 -22.84375 C 39.253906 -27.132812 42.257812 -31.753906 44.875 -36.703125 C 45.238281 -37.378906 45.296875 -37.820312 45.046875 -38.03125 C 44.796875 -38.238281 44.414062 -38.34375 43.90625 -38.34375 C 42.988281 -38.34375 41.84375 -38.226562 40.46875 -38 C 39.09375 -37.769531 37.71875 -37.53125 36.34375 -37.28125 C 34.976562 -37.03125 33.835938 -36.8125 32.921875 -36.625 Z M 32.921875 -36.625 "/></g></g></g><g fill="#ffffff" fill-opacity="1"><g transform="translate(395.399254, 103.380107)"><g><path d="M 34.5625 -25.5625 C 31.90625 -22.769531 29.097656 -20.171875 26.140625 -17.765625 C 23.191406 -15.359375 19.90625 -13.054688 16.28125 -10.859375 C 14.675781 -9.898438 13.289062 -9.519531 12.125 -9.71875 C 10.957031 -9.925781 10.085938 -10.441406 9.515625 -11.265625 C 8.941406 -12.085938 8.757812 -12.992188 8.96875 -13.984375 C 9.175781 -14.972656 9.875 -15.765625 11.0625 -16.359375 C 14.769531 -18.191406 18.398438 -20.515625 21.953125 -23.328125 C 25.503906 -26.148438 28.828125 -29.265625 31.921875 -32.671875 C 35.015625 -36.085938 37.679688 -39.5625 39.921875 -43.09375 C 40.148438 -43.457031 40.425781 -43.984375 40.75 -44.671875 C 41.070312 -45.359375 41.390625 -46.066406 41.703125 -46.796875 C 42.023438 -47.523438 42.257812 -48.097656 42.40625 -48.515625 C 42.769531 -49.523438 43.441406 -50.175781 44.421875 -50.46875 C 45.410156 -50.769531 46.394531 -50.75 47.375 -50.40625 C 48.363281 -50.0625 49.109375 -49.460938 49.609375 -48.609375 C 50.117188 -47.765625 50.078125 -46.703125 49.484375 -45.421875 C 49.023438 -44.503906 48.609375 -43.644531 48.234375 -42.84375 C 47.867188 -42.039062 47.160156 -40.90625 46.109375 -39.4375 C 45.148438 -38.15625 44.195312 -36.921875 43.25 -35.734375 C 42.3125 -34.546875 41.382812 -33.378906 40.46875 -32.234375 C 40.75 -31.953125 40.957031 -31.609375 41.09375 -31.203125 C 41.28125 -30.691406 41.40625 -30.21875 41.46875 -29.78125 C 41.539062 -29.351562 41.578125 -28.738281 41.578125 -27.9375 C 41.578125 -27.132812 41.53125 -25.953125 41.4375 -24.390625 C 41.34375 -22.609375 41.285156 -20.375 41.265625 -17.6875 C 41.242188 -15.007812 41.253906 -12.203125 41.296875 -9.265625 C 41.347656 -6.335938 41.394531 -3.640625 41.4375 -1.171875 C 41.476562 0.429688 41.109375 1.578125 40.328125 2.265625 C 39.554688 2.953125 38.710938 3.34375 37.796875 3.4375 C 36.921875 3.53125 36.082031 3.242188 35.28125 2.578125 C 34.476562 1.910156 34.101562 0.820312 34.15625 -0.6875 C 34.195312 -3.15625 34.273438 -5.738281 34.390625 -8.4375 C 34.503906 -11.144531 34.609375 -13.816406 34.703125 -16.453125 C 34.796875 -19.085938 34.796875 -21.484375 34.703125 -23.640625 C 34.703125 -24.003906 34.691406 -24.332031 34.671875 -24.625 C 34.648438 -24.925781 34.613281 -25.238281 34.5625 -25.5625 Z M 34.5625 -25.5625 "/></g></g></g><g fill="#ffffff" fill-opacity="1"><g transform="translate(464.117273, 103.380107)"><g><path d="M 65.015625 -47.625 C 65.554688 -46.84375 65.757812 -46.070312 65.625 -45.3125 C 65.488281 -44.5625 65.132812 -43.945312 64.5625 -43.46875 C 63.988281 -42.988281 63.367188 -42.75 62.703125 -42.75 C 62.035156 -42.75 61.472656 -43.113281 61.015625 -43.84375 C 60.785156 -44.257812 60.347656 -44.796875 59.703125 -45.453125 C 59.066406 -46.117188 58.414062 -46.757812 57.75 -47.375 C 57.09375 -48 56.535156 -48.425781 56.078125 -48.65625 C 55.253906 -49.15625 54.804688 -49.703125 54.734375 -50.296875 C 54.660156 -50.898438 54.832031 -51.453125 55.25 -51.953125 C 55.664062 -52.453125 56.21875 -52.789062 56.90625 -52.96875 C 57.59375 -53.15625 58.300781 -53.046875 59.03125 -52.640625 C 59.894531 -52.179688 60.957031 -51.457031 62.21875 -50.46875 C 63.476562 -49.488281 64.410156 -48.539062 65.015625 -47.625 Z M 57.109375 -43.5625 C 57.660156 -42.738281 57.832031 -41.957031 57.625 -41.21875 C 57.414062 -40.488281 57.015625 -39.882812 56.421875 -39.40625 C 55.828125 -38.925781 55.1875 -38.707031 54.5 -38.75 C 53.8125 -38.800781 53.257812 -39.191406 52.84375 -39.921875 C 52.613281 -40.335938 52.1875 -40.875 51.5625 -41.53125 C 50.945312 -42.195312 50.304688 -42.851562 49.640625 -43.5 C 48.984375 -44.144531 48.445312 -44.601562 48.03125 -44.875 C 47.25 -45.375 46.820312 -45.929688 46.75 -46.546875 C 46.6875 -47.171875 46.882812 -47.722656 47.34375 -48.203125 C 47.800781 -48.679688 48.375 -48.988281 49.0625 -49.125 C 49.75 -49.269531 50.460938 -49.132812 51.203125 -48.71875 C 51.742188 -48.394531 52.40625 -47.945312 53.1875 -47.375 C 53.96875 -46.800781 54.722656 -46.179688 55.453125 -45.515625 C 56.191406 -44.859375 56.742188 -44.207031 57.109375 -43.5625 Z M 35.25 -17.515625 C 32.09375 -14.171875 28.539062 -11.132812 24.59375 -8.40625 C 20.65625 -5.6875 16.238281 -3.390625 11.34375 -1.515625 C 10.0625 -1.054688 8.9375 -1.019531 7.96875 -1.40625 C 7.007812 -1.800781 6.3125 -2.429688 5.875 -3.296875 C 5.4375 -4.171875 5.421875 -5.050781 5.828125 -5.9375 C 6.242188 -6.832031 7.1875 -7.535156 8.65625 -8.046875 C 12 -9.191406 15.21875 -10.710938 18.3125 -12.609375 C 21.40625 -14.515625 24.289062 -16.664062 26.96875 -19.0625 C 29.644531 -21.46875 32.035156 -23.976562 34.140625 -26.59375 C 36.253906 -29.207031 38 -31.816406 39.375 -34.421875 C 39.925781 -35.523438 39.71875 -36.03125 38.75 -35.9375 C 37.925781 -35.84375 36.875 -35.660156 35.59375 -35.390625 C 34.3125 -35.117188 33.003906 -34.820312 31.671875 -34.5 C 30.347656 -34.175781 29.144531 -33.863281 28.0625 -33.5625 C 26.988281 -33.269531 26.222656 -33.078125 25.765625 -32.984375 C 24.710938 -32.753906 23.84375 -32.554688 23.15625 -32.390625 C 22.46875 -32.234375 21.800781 -32.109375 21.15625 -32.015625 C 20.519531 -31.929688 19.742188 -31.863281 18.828125 -31.8125 C 17.722656 -31.8125 16.835938 -32.164062 16.171875 -32.875 C 15.515625 -33.59375 15.140625 -34.421875 15.046875 -35.359375 C 14.953125 -36.296875 15.210938 -37.117188 15.828125 -37.828125 C 16.453125 -38.535156 17.472656 -38.890625 18.890625 -38.890625 C 19.859375 -38.890625 20.898438 -38.976562 22.015625 -39.15625 C 23.140625 -39.34375 24.140625 -39.507812 25.015625 -39.65625 C 25.648438 -39.738281 26.585938 -39.929688 27.828125 -40.234375 C 29.066406 -40.535156 30.472656 -40.859375 32.046875 -41.203125 C 33.628906 -41.546875 35.253906 -41.863281 36.921875 -42.15625 C 38.597656 -42.457031 40.148438 -42.675781 41.578125 -42.8125 C 43.546875 -43 45.144531 -42.734375 46.375 -42.015625 C 47.613281 -41.304688 48.414062 -40.34375 48.78125 -39.125 C 49.15625 -37.914062 48.953125 -36.648438 48.171875 -35.328125 C 46.890625 -33.078125 45.535156 -30.863281 44.109375 -28.6875 C 42.691406 -26.507812 41.160156 -24.414062 39.515625 -22.40625 C 41.671875 -21.4375 43.945312 -20.285156 46.34375 -18.953125 C 48.75 -17.628906 51.03125 -16.164062 53.1875 -14.5625 C 55.34375 -12.957031 57.0625 -11.21875 58.34375 -9.34375 C 59.125 -8.289062 59.382812 -7.222656 59.125 -6.140625 C 58.875 -5.066406 58.40625 -4.234375 57.71875 -3.640625 C 57.03125 -3.046875 56.207031 -2.757812 55.25 -2.78125 C 54.289062 -2.800781 53.421875 -3.296875 52.640625 -4.265625 C 51.453125 -5.773438 49.882812 -7.375 47.9375 -9.0625 C 45.988281 -10.757812 43.898438 -12.363281 41.671875 -13.875 C 39.453125 -15.394531 37.3125 -16.609375 35.25 -17.515625 Z M 35.25 -17.515625 "/></g></g></g></svg>